<svg id="koustab" width="496.12750244140625px" height="72.8275390625px" xmlns="http://www.w3.org/2000/svg" viewBox="1.936248779296875 38.58623046875 496.12750244140625 72.8275390625" style="background:#596886" preserveAspectRatio="xMidYMid"><defs><filter id="editing-hover" x="-100%" y="-100%" width="300%" height="300%"><feFlood flood-color="#052b4a" result="flood"></feFlood><feComposite operator="in" in2="SourceAlpha" in="flood" result="shadow"></feComposite><feOffset dx="0" dy="-0.7" in="SourceGraphic" result="offset-1"></feOffset><feOffset dx="0" dy="0.7" in="shadow" result="offset-2"></feOffset><feMerge><feMergeNode in="offset-2"></feMergeNode><feMergeNode in="offset-1"></feMergeNode></feMerge></filter></defs><g filter="url(#editing-hover)"><g transform="translate(73.42999505996704, 89.61999988555908)"><path d="M6.94-3.51L7.33-3.51L7.33-13.81L17.82-13.81L17.82-13.81Q19.97-13.81 21.06-13.03L21.06-13.03L21.06-13.03Q22.15-12.25 22.15-10.37L22.15-10.37L22.15-3.51L22.54-3.51L22.54-10.37L22.54-10.37Q22.54-12.40 21.37-13.30L21.37-13.30L21.37-13.30Q20.20-14.20 17.82-14.20L17.82-14.20L16.22-14.20L20.71-24.57L20.28-24.57L15.79-14.20L7.33-14.20L7.33-24.57L6.94-24.57L6.94-3.51ZM10.14 0L10.14 0L4.09 0L4.09 0Q3.35 0 3.02-0.33L3.02-0.33L3.02-0.33Q2.69-0.66 2.69-1.40L2.69-1.40L2.69-26.68L2.69-26.68Q2.69-27.42 3.02-27.75L3.02-27.75L3.02-27.75Q3.35-28.08 4.09-28.08L4.09-28.08L10.14-28.08L10.14-28.08Q10.88-28.08 11.21-27.75L11.21-27.75L11.21-27.75Q11.54-27.42 11.54-26.68L11.54-26.68L11.54-17.71L13.10-17.71L17.12-26.79L17.12-26.79Q17.39-27.50 17.86-27.79L17.86-27.79L17.86-27.79Q18.33-28.08 19.07-28.08L19.07-28.08L25.08-28.08L25.08-28.08Q25.74-28.08 25.97-27.75L25.97-27.75L25.97-27.75Q26.21-27.42 25.93-26.79L25.93-26.79L21.96-17.71L21.96-17.71Q24.14-17.59 25.45-16.17L25.45-16.17L25.45-16.17Q26.75-14.74 26.75-12.40L26.75-12.40L26.75-1.40L26.75-1.40Q26.75-0.66 26.42-0.33L26.42-0.33L26.42-0.33Q26.09 0 25.35 0L25.35 0L19.34 0L19.34 0Q18.60 0 18.27-0.33L18.27-0.33L18.27-0.33Q17.94-0.66 17.94-1.40L17.94-1.40L17.94-9.01L17.94-9.01Q17.94-9.63 17.63-9.98L17.63-9.98L17.63-9.98Q17.32-10.34 16.69-10.34L16.69-10.34L11.54-10.34L11.54-1.40L11.54-1.40Q11.54-0.66 11.21-0.33L11.21-0.33L11.21-0.33Q10.88 0 10.14 0ZM55.58-20.67L55.58-7.37L55.58-7.37Q55.58-5.58 55.05-4.11L55.05-4.11L55.05-4.11Q54.52-2.65 53.18-1.62L53.18-1.62L53.18-1.62Q51.83-0.58 49.47 0L49.47 0L49.47 0Q47.11 0.58 43.48 0.58L43.48 0.58L43.48 0.58Q39.86 0.58 37.48 0L37.48 0L37.48 0Q35.10-0.58 33.75-1.62L33.75-1.62L33.75-1.62Q32.41-2.65 31.88-4.11L31.88-4.11L31.88-4.11Q31.36-5.58 31.36-7.37L31.36-7.37L31.36-20.67L31.36-20.67Q31.36-22.46 31.88-23.93L31.88-23.93L31.88-23.93Q32.41-25.39 33.75-26.44L33.75-26.44L33.75-26.44Q35.10-27.50 37.48-28.08L37.48-28.08L37.48-28.08Q39.86-28.66 43.48-28.66L43.48-28.66L43.48-28.66Q47.11-28.66 49.47-28.08L49.47-28.08L49.47-28.08Q51.83-27.50 53.18-26.44L53.18-26.44L53.18-26.44Q54.52-25.39 55.05-23.93L55.05-23.93L55.05-23.93Q55.58-22.46 55.58-20.67L55.58-20.67ZM51.32-8.27L51.32-8.27L51.32-19.77L51.32-19.77Q51.32-22.11 49.65-23.58L49.65-23.58L49.65-23.58Q47.97-25.04 43.41-25.04L43.41-25.04L43.41-25.04Q38.84-25.04 37.21-23.58L37.21-23.58L37.21-23.58Q35.57-22.11 35.57-19.77L35.57-19.77L35.57-8.27L35.57-8.27Q35.57-5.93 37.21-4.47L37.21-4.47L37.21-4.47Q38.84-3.00 43.41-3.00L43.41-3.00L43.41-3.00Q47.97-3.00 49.65-4.47L49.65-4.47L49.65-4.47Q51.32-5.93 51.32-8.27ZM35.96-8.27L35.96-8.27L35.96-19.77L35.96-19.77Q35.96-21.96 37.52-23.30L37.52-23.30L37.52-23.30Q39.08-24.65 43.41-24.65L43.41-24.65L43.41-24.65Q47.74-24.65 49.34-23.30L49.34-23.30L49.34-23.30Q50.93-21.96 50.93-19.77L50.93-19.77L50.93-8.27L50.93-8.27Q50.93-6.08 49.34-4.74L49.34-4.74L49.34-4.74Q47.74-3.39 43.41-3.39L43.41-3.39L43.41-3.39Q39.08-3.39 37.52-4.74L37.52-4.74L37.52-4.74Q35.96-6.08 35.96-8.27ZM40.21-19.27L40.21-8.78L40.21-8.78Q40.21-8.00 40.79-7.47L40.79-7.47L40.79-7.47Q41.38-6.94 43.48-6.94L43.48-6.94L43.48-6.94Q45.59-6.94 46.18-7.47L46.18-7.47L46.18-7.47Q46.76-8.00 46.76-8.78L46.76-8.78L46.76-19.27L46.76-19.27Q46.76-20.01 46.18-20.53L46.18-20.53L46.18-20.53Q45.59-21.06 43.48-21.06L43.48-21.06L43.48-21.06Q41.38-21.06 40.79-20.53L40.79-20.53L40.79-20.53Q40.21-20.01 40.21-19.27L40.21-19.27ZM84.44-26.68L84.44-7.37L84.44-7.37Q84.44-5.58 83.91-4.11L83.91-4.11L83.91-4.11Q83.38-2.65 82.04-1.62L82.04-1.62L82.04-1.62Q80.69-0.58 78.35 0L78.35 0L78.35 0Q76.01 0.58 72.38 0.58L72.38 0.58L72.38 0.58Q68.76 0.58 66.42 0L66.42 0L66.42 0Q64.08-0.58 62.73-1.62L62.73-1.62L62.73-1.62Q61.39-2.65 60.86-4.11L60.86-4.11L60.86-4.11Q60.33-5.58 60.33-7.37L60.33-7.37L60.33-26.68L60.33-26.68Q60.33-27.42 60.66-27.75L60.66-27.75L60.66-27.75Q61.00-28.08 61.74-28.08L61.74-28.08L67.86-28.08L67.86-28.08Q68.60-28.08 68.93-27.75L68.93-27.75L68.93-27.75Q69.26-27.42 69.26-26.68L69.26-26.68L69.26-8.89L69.26-8.89Q69.26-8.11 69.85-7.59L69.85-7.59L69.85-7.59Q70.43-7.06 72.46-7.06L72.46-7.06L72.46-7.06Q74.53-7.06 75.11-7.59L75.11-7.59L75.11-7.59Q75.70-8.11 75.70-8.89L75.70-8.89L75.70-26.68L75.70-26.68Q75.70-27.42 76.03-27.75L76.03-27.75L76.03-27.75Q76.36-28.08 77.10-28.08L77.10-28.08L83.03-28.08L83.03-28.08Q83.77-28.08 84.10-27.75L84.10-27.75L84.10-27.75Q84.44-27.42 84.44-26.68L84.44-26.68ZM65.01-24.57L64.62-24.57L64.62-8.31L64.62-8.31Q64.62-5.97 66.24-4.50L66.24-4.50L66.24-4.50Q67.86-3.04 72.42-3.04L72.42-3.04L72.42-3.04Q76.99-3.04 78.62-4.50L78.62-4.50L78.62-4.50Q80.26-5.97 80.26-8.31L80.26-8.31L80.26-24.57L79.87-24.57L79.87-8.31L79.87-8.31Q79.87-6.12 78.31-4.78L78.31-4.78L78.31-4.78Q76.75-3.43 72.42-3.43L72.42-3.43L72.42-3.43Q68.09-3.43 66.55-4.78L66.55-4.78L66.55-4.78Q65.01-6.12 65.01-8.31L65.01-8.31L65.01-24.57ZM102.65 0L102.65 0L90.32 0L90.32 0Q89.58 0 89.25-0.33L89.25-0.33L89.25-0.33Q88.92-0.66 88.92-1.40L88.92-1.40L88.92-5.97L88.92-5.97Q88.92-6.71 89.25-7.04L89.25-7.04L89.25-7.04Q89.58-7.37 90.32-7.37L90.32-7.37L100.82-7.37L100.82-7.37Q101.32-7.37 101.58-7.70L101.58-7.70L101.58-7.70Q101.83-8.03 101.83-8.50L101.83-8.50L101.83-8.50Q101.83-9.16 101.58-9.48L101.58-9.48L101.58-9.48Q101.32-9.79 100.82-9.83L100.82-9.83L94.97-10.65L94.97-10.65Q92.24-11.04 90.58-12.44L90.58-12.44L90.58-12.44Q88.92-13.85 88.92-17.12L88.92-17.12L88.92-21.22L88.92-21.22Q88.92-24.53 91.07-26.31L91.07-26.31L91.07-26.31Q93.21-28.08 96.99-28.08L96.99-28.08L107.91-28.08L107.91-28.08Q108.65-28.08 108.99-27.75L108.99-27.75L108.99-27.75Q109.32-27.42 109.32-26.68L109.32-26.68L109.32-22.04L109.32-22.04Q109.32-21.29 108.99-20.96L108.99-20.96L108.99-20.96Q108.65-20.63 107.91-20.63L107.91-20.63L98.83-20.63L98.83-20.63Q98.32-20.63 98.05-20.30L98.05-20.30L98.05-20.30Q97.77-19.97 97.77-19.46L97.77-19.46L97.77-19.46Q97.77-18.95 98.05-18.60L98.05-18.60L98.05-18.60Q98.32-18.25 98.83-18.21L98.83-18.21L104.64-17.43L104.64-17.43Q107.37-17.04 109.04-15.64L109.04-15.64L109.04-15.64Q110.72-14.23 110.72-10.96L110.72-10.96L110.72-6.86L110.72-6.86Q110.72-3.55 108.56-1.77L108.56-1.77L108.56-1.77Q106.39 0 102.65 0ZM105.81-24.18L105.81-24.57L97.15-24.57L97.15-24.57Q95.36-24.57 94.26-23.58L94.26-23.58L94.26-23.58Q93.17-22.58 93.17-21.02L93.17-21.02L93.17-17.82L93.17-17.82Q93.17-16.22 93.81-15.62L93.81-15.62L93.81-15.62Q94.46-15.02 95.47-14.82L95.47-14.82L103.70-13.14L103.70-13.14Q104.79-12.91 105.44-12.23L105.44-12.23L105.44-12.23Q106.08-11.54 106.08-9.71L106.08-9.71L106.08-7.45L106.08-7.45Q106.08-5.89 105.01-4.89L105.01-4.89L105.01-4.89Q103.94-3.90 102.14-3.90L102.14-3.90L92.43-3.90L92.43-3.51L102.14-3.51L102.14-3.51Q104.13-3.51 105.30-4.62L105.30-4.62L105.30-4.62Q106.47-5.73 106.47-7.45L106.47-7.45L106.47-9.71L106.47-9.71Q106.47-11.74 105.71-12.52L105.71-12.52L105.71-12.52Q104.95-13.30 103.78-13.53L103.78-13.53L95.55-15.21L95.55-15.21Q94.65-15.37 94.11-15.91L94.11-15.91L94.11-15.91Q93.56-16.46 93.56-17.82L93.56-17.82L93.56-21.02L93.56-21.02Q93.56-22.39 94.54-23.28L94.54-23.28L94.54-23.28Q95.51-24.18 97.15-24.18L97.15-24.18L105.81-24.18ZM128.23 0L128.23 0L121.91 0L121.91 0Q121.17 0 120.84-0.33L120.84-0.33L120.84-0.33Q120.51-0.66 120.51-1.40L120.51-1.40L120.51-20.55L114.78-20.55L114.78-20.55Q114.04-20.55 113.70-20.88L113.70-20.88L113.70-20.88Q113.37-21.22 113.37-21.96L113.37-21.96L113.37-26.68L113.37-26.68Q113.37-27.42 113.70-27.75L113.70-27.75L113.70-27.75Q114.04-28.08 114.78-28.08L114.78-28.08L135.37-28.08L135.37-28.08Q136.11-28.08 136.44-27.75L136.44-27.75L136.44-27.75Q136.77-27.42 136.77-26.68L136.77-26.68L136.77-21.96L136.77-21.96Q136.77-21.22 136.44-20.88L136.44-20.88L136.44-20.88Q136.11-20.55 135.37-20.55L135.37-20.55L129.64-20.55L129.64-1.40L129.64-1.40Q129.64-0.66 129.30-0.33L129.30-0.33L129.30-0.33Q128.97 0 128.23 0ZM124.88-24.18L124.88-3.51L125.27-3.51L125.27-24.18L133.26-24.18L133.26-24.57L116.88-24.57L116.88-24.18L124.88-24.18ZM144.50-10.61L144.50-11.82L144.50-11.82Q144.50-12.87 144.67-13.77L144.67-13.77L144.67-13.77Q144.85-14.66 145.12-15.44L145.12-15.44L147.62-21.84L147.62-21.84Q148.00-22.82 148.47-23.50L148.47-23.50L148.47-23.50Q148.94-24.18 150.11-24.18L150.11-24.18L153.93-24.18L153.93-24.18Q155.03-24.18 155.49-23.50L155.49-23.50L155.49-23.50Q155.96-22.82 156.39-21.80L156.39-21.80L159.08-15.44L159.08-15.44Q159.35-14.66 159.53-13.77L159.53-13.77L159.53-13.77Q159.71-12.87 159.71-11.82L159.71-11.82L159.71-10.61L144.50-10.61ZM150.74-19.89L150.74-19.89L148.90-13.96L155.03-13.96L153.19-19.89L153.19-19.89Q153.04-20.24 152.86-20.40L152.86-20.40L152.86-20.40Q152.69-20.55 152.45-20.55L152.45-20.55L151.48-20.55L151.48-20.55Q151.24-20.55 151.07-20.40L151.07-20.40L151.07-20.40Q150.89-20.24 150.74-19.89ZM159.71-10.22L159.71-3.51L160.09-3.51L160.09-11.82L160.09-11.82Q160.09-12.91 159.92-13.83L159.92-13.83L159.92-13.83Q159.74-14.74 159.43-15.60L159.43-15.60L156.74-21.96L156.74-21.96Q156.27-23.09 155.75-23.83L155.75-23.83L155.75-23.83Q155.22-24.57 153.93-24.57L153.93-24.57L150.11-24.57L150.11-24.57Q148.78-24.57 148.24-23.83L148.24-23.83L148.24-23.83Q147.69-23.09 147.26-22.00L147.26-22.00L144.77-15.60L144.77-15.60Q144.46-14.74 144.28-13.83L144.28-13.83L144.28-13.83Q144.11-12.91 144.11-11.82L144.11-11.82L144.11-3.51L144.50-3.51L144.50-10.22L159.71-10.22ZM148.51-6.86L148.51-1.40L148.51-1.40Q148.51-0.66 148.18-0.33L148.18-0.33L148.18-0.33Q147.85 0 147.11 0L147.11 0L141.38 0L141.38 0Q140.63 0 140.30-0.33L140.30-0.33L140.30-0.33Q139.97-0.66 139.97-1.40L139.97-1.40L139.97-11.70L139.97-11.70Q139.97-12.87 140.34-14.39L140.34-14.39L140.34-14.39Q140.71-15.91 141.49-17.94L141.49-17.94L144.89-26.79L144.89-26.79Q145.12-27.46 145.61-27.77L145.61-27.77L145.61-27.77Q146.09-28.08 146.87-28.08L146.87-28.08L157.37-28.08L157.37-28.08Q158.11-28.08 158.59-27.77L158.59-27.77L158.59-27.77Q159.08-27.46 159.31-26.79L159.31-26.79L162.71-17.94L162.71-17.94Q163.49-15.91 163.86-14.39L163.86-14.39L163.86-14.39Q164.23-12.87 164.23-11.70L164.23-11.70L164.23-1.40L164.23-1.40Q164.23-0.66 163.90-0.33L163.90-0.33L163.90-0.33Q163.57 0 162.83 0L162.83 0L156.94 0L156.94 0Q156.16 0 155.79-0.33L155.79-0.33L155.79-0.33Q155.42-0.66 155.42-1.40L155.42-1.40L155.42-6.86L148.51-6.86ZM185.41 0L185.41 0L170.43 0L170.43 0Q169.69 0 169.36-0.33L169.36-0.33L169.36-0.33Q169.03-0.66 169.03-1.40L169.03-1.40L169.03-26.68L169.03-26.68Q169.03-27.42 169.36-27.75L169.36-27.75L169.36-27.75Q169.69-28.08 170.43-28.08L170.43-28.08L182.87-28.08L182.87-28.08Q186.69-28.08 188.53-26.62L188.53-26.62L188.53-26.62Q190.36-25.16 190.36-22.11L190.36-22.11L190.36-20.24L190.36-20.24Q190.36-18.60 189.79-17.57L189.79-17.57L189.79-17.57Q189.23-16.54 188.06-16.03L188.06-16.03L188.06-16.03Q190.55-15.79 191.76-14.31L191.76-14.31L191.76-14.31Q192.97-12.83 192.97-9.98L192.97-9.98L192.97-6.40L192.97-6.40Q192.97-3.12 191.12-1.56L191.12-1.56L191.12-1.56Q189.27 0 185.41 0ZM173.36-24.57L173.36-3.51L183.85-3.51L183.85-3.51Q185.48-3.51 186.50-3.80L186.50-3.80L186.50-3.80Q187.51-4.09 188.04-4.60L188.04-4.60L188.04-4.60Q188.56-5.11 188.76-5.83L188.76-5.83L188.76-5.83Q188.96-6.55 188.96-7.41L188.96-7.41L188.96-9.91L188.96-9.91Q188.96-10.88 188.78-11.70L188.78-11.70L188.78-11.70Q188.60-12.52 188.06-13.12L188.06-13.12L188.06-13.12Q187.51-13.73 186.50-14.06L186.50-14.06L186.50-14.06Q185.48-14.39 183.89-14.39L183.89-14.39L183.89-14.39Q185.56-14.82 185.97-15.79L185.97-15.79L185.97-15.79Q186.38-16.77 186.38-17.94L186.38-17.94L186.38-20.44L186.38-20.44Q186.38-21.29 186.19-22.04L186.19-22.04L186.19-22.04Q185.99-22.78 185.44-23.34L185.44-23.34L185.44-23.34Q184.90-23.91 183.89-24.24L183.89-24.24L183.89-24.24Q182.87-24.57 181.27-24.57L181.27-24.57L173.36-24.57ZM173.75-24.18L181.27-24.18L181.27-24.18Q184.20-24.18 185.09-23.09L185.09-23.09L185.09-23.09Q185.99-22.00 185.99-20.44L185.99-20.44L185.99-17.94L185.99-17.94Q185.99-17.24 185.85-16.59L185.85-16.59L185.85-16.59Q185.72-15.95 185.23-15.46L185.23-15.46L185.23-15.46Q184.74-14.98 183.81-14.68L183.81-14.68L183.81-14.68Q182.87-14.39 181.27-14.39L181.27-14.39L173.75-14.39L173.75-24.18ZM181.12-21.45L177.80-21.45L177.80-17.24L181.12-17.24L181.12-17.24Q181.86-17.24 182.23-17.63L182.23-17.63L182.23-17.63Q182.60-18.02 182.60-18.80L182.60-18.80L182.60-19.89L182.60-19.89Q182.60-20.67 182.23-21.06L182.23-21.06L182.23-21.06Q181.86-21.45 181.12-21.45L181.12-21.45ZM173.75-14.00L183.89-14.00L183.89-14.00Q186.81-14.00 187.69-12.83L187.69-12.83L187.69-12.83Q188.56-11.66 188.56-9.91L188.56-9.91L188.56-7.41L188.56-7.41Q188.56-5.81 187.67-4.86L187.67-4.86L187.67-4.86Q186.77-3.90 183.85-3.90L183.85-3.90L173.75-3.90L173.75-14.00ZM182.87-11.23L177.80-11.23L177.80-6.63L182.87-6.63L182.87-6.63Q183.61-6.63 183.98-7.02L183.98-7.02L183.98-7.02Q184.35-7.41 184.35-8.19L184.35-8.19L184.35-9.71L184.35-9.71Q184.35-10.49 183.98-10.86L183.98-10.86L183.98-10.86Q183.61-11.23 182.87-11.23L182.87-11.23ZM210.33-3.51L210.72-3.51L210.72-13.81L221.21-13.81L221.21-13.81Q223.35-13.81 224.45-13.03L224.45-13.03L224.45-13.03Q225.54-12.25 225.54-10.37L225.54-10.37L225.54-3.51L225.93-3.51L225.93-10.37L225.93-10.37Q225.93-12.40 224.76-13.30L224.76-13.30L224.76-13.30Q223.59-14.20 221.21-14.20L221.21-14.20L219.61-14.20L224.09-24.57L223.67-24.57L219.18-14.20L210.72-14.20L210.72-24.57L210.33-24.57L210.33-3.51ZM213.53 0L213.53 0L207.48 0L207.48 0Q206.74 0 206.41-0.33L206.41-0.33L206.41-0.33Q206.08-0.66 206.08-1.40L206.08-1.40L206.08-26.68L206.08-26.68Q206.08-27.42 206.41-27.75L206.41-27.75L206.41-27.75Q206.74-28.08 207.48-28.08L207.48-28.08L213.53-28.08L213.53-28.08Q214.27-28.08 214.60-27.75L214.60-27.75L214.60-27.75Q214.93-27.42 214.93-26.68L214.93-26.68L214.93-17.71L216.49-17.71L220.51-26.79L220.51-26.79Q220.78-27.50 221.25-27.79L221.25-27.79L221.25-27.79Q221.72-28.08 222.46-28.08L222.46-28.08L228.46-28.08L228.46-28.08Q229.13-28.08 229.36-27.75L229.36-27.75L229.36-27.75Q229.59-27.42 229.32-26.79L229.32-26.79L225.34-17.71L225.34-17.71Q227.53-17.59 228.83-16.17L228.83-16.17L228.83-16.17Q230.14-14.74 230.14-12.40L230.14-12.40L230.14-1.40L230.14-1.40Q230.14-0.66 229.81-0.33L229.81-0.33L229.81-0.33Q229.48 0 228.74 0L228.74 0L222.73 0L222.73 0Q221.99 0 221.66-0.33L221.66-0.33L221.66-0.33Q221.33-0.66 221.33-1.40L221.33-1.40L221.33-9.01L221.33-9.01Q221.33-9.63 221.01-9.98L221.01-9.98L221.01-9.98Q220.70-10.34 220.08-10.34L220.08-10.34L214.93-10.34L214.93-1.40L214.93-1.40Q214.93-0.66 214.60-0.33L214.60-0.33L214.60-0.33Q214.27 0 213.53 0ZM259.08-26.68L259.08-7.37L259.08-7.37Q259.08-5.58 258.55-4.11L258.55-4.11L258.55-4.11Q258.02-2.65 256.68-1.62L256.68-1.62L256.68-1.62Q255.33-0.58 252.99 0L252.99 0L252.99 0Q250.65 0.58 247.03 0.58L247.03 0.58L247.03 0.58Q243.40 0.58 241.06 0L241.06 0L241.06 0Q238.72-0.58 237.37-1.62L237.37-1.62L237.37-1.62Q236.03-2.65 235.50-4.11L235.50-4.11L235.50-4.11Q234.98-5.58 234.98-7.37L234.98-7.37L234.98-26.68L234.98-26.68Q234.98-27.42 235.31-27.75L235.31-27.75L235.31-27.75Q235.64-28.08 236.38-28.08L236.38-28.08L242.50-28.08L242.50-28.08Q243.24-28.08 243.57-27.75L243.57-27.75L243.57-27.75Q243.91-27.42 243.91-26.68L243.91-26.68L243.91-8.89L243.91-8.89Q243.91-8.11 244.49-7.59L244.49-7.59L244.49-7.59Q245.08-7.06 247.10-7.06L247.10-7.06L247.10-7.06Q249.17-7.06 249.76-7.59L249.76-7.59L249.76-7.59Q250.34-8.11 250.34-8.89L250.34-8.89L250.34-26.68L250.34-26.68Q250.34-27.42 250.67-27.75L250.67-27.75L250.67-27.75Q251.00-28.08 251.75-28.08L251.75-28.08L257.67-28.08L257.67-28.08Q258.41-28.08 258.75-27.75L258.75-27.75L258.75-27.75Q259.08-27.42 259.08-26.68L259.08-26.68ZM239.66-24.57L239.27-24.57L239.27-8.31L239.27-8.31Q239.27-5.97 240.88-4.50L240.88-4.50L240.88-4.50Q242.50-3.04 247.07-3.04L247.07-3.04L247.07-3.04Q251.63-3.04 253.27-4.50L253.27-4.50L253.27-4.50Q254.90-5.97 254.90-8.31L254.90-8.31L254.90-24.57L254.51-24.57L254.51-8.31L254.51-8.31Q254.51-6.12 252.95-4.78L252.95-4.78L252.95-4.78Q251.39-3.43 247.07-3.43L247.07-3.43L247.07-3.43Q242.74-3.43 241.20-4.78L241.20-4.78L241.20-4.78Q239.66-6.12 239.66-8.31L239.66-8.31L239.66-24.57ZM277.99-15.02L277.99-15.02L277.99-15.02Q277.29-15.02 276.98-15.33L276.98-15.33L276.98-15.33Q276.67-15.64 276.00-16.65L276.00-16.65L271.25-23.91L271.25-23.91Q271.01-24.30 270.70-24.43L270.70-24.43L270.70-24.43Q270.39-24.57 270.08-24.57L270.08-24.57L269.41-24.57L269.41-24.57Q268.91-24.57 268.65-24.28L268.65-24.28L268.65-24.28Q268.40-23.98 268.40-23.36L268.40-23.36L268.40-3.51L268.79-3.51L268.79-23.36L268.79-23.36Q268.79-23.67 268.91-23.93L268.91-23.93L268.91-23.93Q269.02-24.18 269.41-24.18L269.41-24.18L270.00-24.18L270.00-24.18Q270.27-24.18 270.48-24.10L270.48-24.10L270.48-24.10Q270.70-24.02 270.93-23.63L270.93-23.63L275.69-16.46L275.69-16.46Q276.39-15.40 276.76-15.02L276.76-15.02L276.76-15.02Q277.13-14.63 277.99-14.63L277.99-14.63L277.99-14.63Q278.85-14.63 279.22-15.02L279.22-15.02L279.22-15.02Q279.59-15.40 280.29-16.46L280.29-16.46L285.05-23.63L285.05-23.63Q285.29-24.02 285.48-24.10L285.48-24.10L285.48-24.10Q285.68-24.18 285.95-24.18L285.95-24.18L286.53-24.18L286.53-24.18Q286.92-24.18 287.06-23.93L287.06-23.93L287.06-23.93Q287.20-23.67 287.20-23.36L287.20-23.36L287.20-3.51L287.59-3.51L287.59-23.36L287.59-23.36Q287.59-23.98 287.33-24.28L287.33-24.28L287.33-24.28Q287.08-24.57 286.53-24.57L286.53-24.57L285.87-24.57L285.87-24.57Q285.56-24.57 285.27-24.43L285.27-24.43L285.27-24.43Q284.97-24.30 284.74-23.91L284.74-23.91L279.98-16.65L279.98-16.65Q279.32-15.64 279.01-15.33L279.01-15.33L279.01-15.33Q278.69-15.02 277.99-15.02ZM271.48 0L271.48 0L265.67 0L265.67 0Q264.93 0 264.60-0.33L264.60-0.33L264.60-0.33Q264.26-0.66 264.26-1.40L264.26-1.40L264.26-26.68L264.26-26.68Q264.26-27.42 264.60-27.75L264.60-27.75L264.60-27.75Q264.93-28.08 265.67-28.08L265.67-28.08L271.95-28.08L271.95-28.08Q272.57-28.08 272.98-27.81L272.98-27.81L272.98-27.81Q273.39-27.53 273.74-26.91L273.74-26.91L277.25-20.55L277.25-20.55Q277.45-20.20 277.58-20.05L277.58-20.05L277.58-20.05Q277.72-19.89 277.95-19.89L277.95-19.89L278.30-19.89L278.30-19.89Q278.54-19.89 278.67-20.05L278.67-20.05L278.67-20.05Q278.81-20.20 279.01-20.55L279.01-20.55L282.48-26.91L282.48-26.91Q282.83-27.53 283.24-27.81L283.24-27.81L283.24-27.81Q283.65-28.08 284.27-28.08L284.27-28.08L290.59-28.08L290.59-28.08Q291.33-28.08 291.66-27.75L291.66-27.75L291.66-27.75Q291.99-27.42 291.99-26.68L291.99-26.68L291.99-1.40L291.99-1.40Q291.99-0.66 291.66-0.33L291.66-0.33L291.66-0.33Q291.33 0 290.59 0L290.59 0L284.58 0L284.58 0Q283.84 0 283.51-0.33L283.51-0.33L283.51-0.33Q283.18-0.66 283.18-1.40L283.18-1.40L283.18-15.13L280.88-10.88L280.88-10.88Q280.53-10.22 280.04-9.93L280.04-9.93L280.04-9.93Q279.55-9.63 278.81-9.63L278.81-9.63L277.25-9.63L277.25-9.63Q276.51-9.63 276.02-9.93L276.02-9.93L276.02-9.93Q275.54-10.22 275.18-10.88L275.18-10.88L272.88-15.13L272.88-1.40L272.88-1.40Q272.88-0.66 272.55-0.33L272.55-0.33L272.55-0.33Q272.22 0 271.48 0ZM301.31-10.61L301.31-11.82L301.31-11.82Q301.31-12.87 301.49-13.77L301.49-13.77L301.49-13.77Q301.67-14.66 301.94-15.44L301.94-15.44L304.43-21.84L304.43-21.84Q304.82-22.82 305.29-23.50L305.29-23.50L305.29-23.50Q305.76-24.18 306.93-24.18L306.93-24.18L310.75-24.18L310.75-24.18Q311.84-24.18 312.31-23.50L312.31-23.50L312.31-23.50Q312.78-22.82 313.21-21.80L313.21-21.80L315.90-15.44L315.90-15.44Q316.17-14.66 316.35-13.77L316.35-13.77L316.35-13.77Q316.52-12.87 316.52-11.82L316.52-11.82L316.52-10.61L301.31-10.61ZM307.55-19.89L307.55-19.89L305.72-13.96L311.84-13.96L310.01-19.89L310.01-19.89Q309.86-20.24 309.68-20.40L309.68-20.40L309.68-20.40Q309.50-20.55 309.27-20.55L309.27-20.55L308.30-20.55L308.30-20.55Q308.06-20.55 307.89-20.40L307.89-20.40L307.89-20.40Q307.71-20.24 307.55-19.89ZM316.52-10.22L316.52-3.51L316.91-3.51L316.91-11.82L316.91-11.82Q316.91-12.91 316.74-13.83L316.74-13.83L316.74-13.83Q316.56-14.74 316.25-15.60L316.25-15.60L313.56-21.96L313.56-21.96Q313.09-23.09 312.57-23.83L312.57-23.83L312.57-23.83Q312.04-24.57 310.75-24.57L310.75-24.57L306.93-24.57L306.93-24.57Q305.60-24.57 305.06-23.83L305.06-23.83L305.06-23.83Q304.51-23.09 304.08-22.00L304.08-22.00L301.59-15.60L301.59-15.60Q301.28-14.74 301.10-13.83L301.10-13.83L301.10-13.83Q300.92-12.91 300.92-11.82L300.92-11.82L300.92-3.51L301.31-3.51L301.31-10.22L316.52-10.22ZM305.33-6.86L305.33-1.40L305.33-1.40Q305.33-0.66 305.00-0.33L305.00-0.33L305.00-0.33Q304.67 0 303.93 0L303.93 0L298.19 0L298.19 0Q297.45 0 297.12-0.33L297.12-0.33L297.12-0.33Q296.79-0.66 296.79-1.40L296.79-1.40L296.79-11.70L296.79-11.70Q296.79-12.87 297.16-14.39L297.16-14.39L297.16-14.39Q297.53-15.91 298.31-17.94L298.31-17.94L301.70-26.79L301.70-26.79Q301.94-27.46 302.43-27.77L302.43-27.77L302.43-27.77Q302.91-28.08 303.69-28.08L303.69-28.08L314.18-28.08L314.18-28.08Q314.93-28.08 315.41-27.77L315.41-27.77L315.41-27.77Q315.90-27.46 316.13-26.79L316.13-26.79L319.53-17.94L319.53-17.94Q320.31-15.91 320.68-14.39L320.68-14.39L320.68-14.39Q321.05-12.87 321.05-11.70L321.05-11.70L321.05-1.40L321.05-1.40Q321.05-0.66 320.72-0.33L320.72-0.33L320.72-0.33Q320.39 0 319.64 0L319.64 0L313.76 0L313.76 0Q312.98 0 312.60-0.33L312.60-0.33L312.60-0.33Q312.23-0.66 312.23-1.40L312.23-1.40L312.23-6.86L305.33-6.86ZM330.45-24.18L338.95-24.18L338.95-24.18Q341.02-24.18 342.01-23.05L342.01-23.05L342.01-23.05Q343.00-21.92 343.00-20.12L343.00-20.12L343.00-17.39L343.00-17.39Q343.00-15.25 342.19-14.08L342.19-14.08L342.19-14.08Q341.37-12.91 338.95-12.91L338.95-12.91L330.45-12.91L330.45-24.18ZM337.58-21.06L334.66-21.06L334.66-16.07L337.58-16.07L337.58-16.07Q338.60-16.07 338.95-16.59L338.95-16.59L338.95-16.59Q339.30-17.12 339.30-17.90L339.30-17.90L339.30-19.23L339.30-19.23Q339.30-20.01 338.95-20.53L338.95-20.53L338.95-20.53Q338.60-21.06 337.58-21.06L337.58-21.06ZM330.06-3.51L330.45-3.51L330.45-12.56L341.48-12.56L341.48-12.56Q343.71-12.56 344.76-11.60L344.76-11.60L344.76-11.60Q345.81-10.65 345.81-8.74L345.81-8.74L345.81-3.51L346.20-3.51L346.20-8.74L346.20-8.74Q346.20-10.76 345.03-11.84L345.03-11.84L345.03-11.84Q343.86-12.91 341.48-12.91L341.48-12.91L341.06-12.91L341.06-12.91Q342.46-13.34 342.93-14.49L342.93-14.49L342.93-14.49Q343.39-15.64 343.39-17.43L343.39-17.43L343.39-20.12L343.39-20.12Q343.39-22.04 342.30-23.30L342.30-23.30L342.30-23.30Q341.21-24.57 338.95-24.57L338.95-24.57L330.06-24.57L330.06-3.51ZM333.25 0L333.25 0L327.25 0L327.25 0Q326.51 0 326.18-0.33L326.18-0.33L326.18-0.33Q325.84-0.66 325.84-1.40L325.84-1.40L325.84-26.68L325.84-26.68Q325.84-27.42 326.18-27.75L326.18-27.75L326.18-27.75Q326.51-28.08 327.25-28.08L327.25-28.08L340.24-28.08L340.24-28.08Q344.60-28.08 346.26-26.27L346.26-26.27L346.26-26.27Q347.92-24.45 347.92-21.57L347.92-21.57L347.92-19.77L347.92-19.77Q347.92-18.14 347.43-16.98L347.43-16.98L347.43-16.98Q346.94-15.83 345.74-15.33L345.74-15.33L345.74-15.33Q347.84-15.09 349.15-13.61L349.15-13.61L349.15-13.61Q350.45-12.13 350.45-9.67L350.45-9.67L350.45-1.40L350.45-1.40Q350.45-0.66 350.12-0.33L350.12-0.33L350.12-0.33Q349.79 0 349.05 0L349.05 0L343.00 0L343.00 0Q342.26 0 341.93-0.33L341.93-0.33L341.93-0.33Q341.60-0.66 341.60-1.40L341.60-1.40L341.60-7.37L341.60-7.37Q341.60-8.23 341.27-8.64L341.27-8.64L341.27-8.64Q340.94-9.05 340.12-9.05L340.12-9.05L334.66-9.05L334.66-1.40L334.66-1.40Q334.66-0.66 334.33-0.33L334.33-0.33L334.33-0.33Q334.00 0 333.25 0Z" fill="#ffd5af"></path></g></g><style>text {
  font-size: 64px;
  font-family: Arial Black;
  dominant-baseline: central;
  text-anchor: middle;
}</style></svg>
